<?xml version="1.0" encoding="UTF-8"?>
<svg id="Capa_2" data-name="Capa 2" xmlns="http://www.w3.org/2000/svg" viewBox="0 0 666.96 666.67">
  <defs>
    <style>
      .cls-1, .cls-2 {
        fill: #22b8f9;
      }

      .cls-2 {
        fill-rule: evenodd;
      }
    </style>
  </defs>
  <g id="Capa_1-2" data-name="Capa 1">
    <path class="cls-1" d="M82.26,275.53c.26,2.38.53,4.79.8,7.22l4.19,37.69c2.94,26.47,5.49,49.43,9.94,67.75,4.78,19.71,12.67,38.27,29.12,53,16.45,14.72,35.77,20.51,55.89,23.09,18.7,2.4,41.8,2.4,68.43,2.4h178.45c18.26,0,34.38,0,47.83-1.37,14.58-1.48,28.75-4.76,42.37-12.96,13.62-8.2,23.15-19.19,31.29-31.38,7.5-11.25,15.04-25.5,23.58-41.63l82.98-156.75c29.44-55.62-10.87-122.58-73.8-122.58H246.63c-32.76,0-60.79,0-82.97,3.1-11.23,1.57-22.23,4.08-32.55,8.36l-4.79-43.15C121.99,29.42,89.12,0,50,0h-16.67C14.92,0,0,14.92,0,33.33s14.92,33.33,33.33,33.33h16.67c5.15,0,9.49,3.88,10.05,9l22.21,199.86Z"/>
    <path class="cls-2" d="M400,583.33c0-46.02,37.31-83.33,83.33-83.33s83.33,37.31,83.33,83.33-37.31,83.33-83.33,83.33-83.33-37.31-83.33-83.33Z"/>
    <path class="cls-2" d="M100,583.33c0-46.02,37.31-83.33,83.33-83.33s83.33,37.31,83.33,83.33-37.31,83.33-83.33,83.33-83.33-37.31-83.33-83.33Z"/>
  </g>
</svg>